<svg xmlns="http://www.w3.org/2000/svg" xmlns:svg="http://www.w3.org/2000/svg" id="Layer_1" width="450" height="450" x="0" y="0" enable-background="new 0 0 32 32" version="1.1" viewBox="0 0 450 450" xml:space="preserve"><metadata id="metadata3342"/><g id="g4133" transform="translate(-40,0)"><path style="fill:#357ec7;fill-opacity:1" id="path3" d="m 80.485938,240.14157 c 19.128587,10.54496 38.257172,21.08991 57.385762,31.63487 17.43246,-16.16052 34.86492,-32.32105 52.29738,-48.48157 -16.27446,-15.45504 -32.54891,-30.91008 -48.82337,-46.36512 -22.20093,12.54972 -44.861672,24.38331 -66.755347,37.41072 -11.422169,7.82107 -4.081944,21.07574 5.895575,25.8011 z M 370.69181,55.944003 c -14.99128,-1.707671 -26.66947,9.816835 -39.52502,15.726995 -56.74408,31.465482 -113.48817,62.930972 -170.23225,94.396452 13.9385,15.18791 27.877,30.37581 41.8155,45.56372 C 258.73063,159.73545 314.71122,107.83973 370.69181,55.944003 Z M 215.41596,225.43257 c 51.6331,56.26124 103.26619,112.52247 154.89929,168.78371 13.64679,-4.08633 10.60031,-20.64687 10.84299,-31.80458 -0.0833,-96.6103 0.16674,-193.22876 -0.12513,-289.833951 0.64725,-12.8472 -11.40889,-21.511815 -17.52451,-8.393482 C 314.14439,117.9337 264.78017,171.68314 215.41596,225.43257 Z m -54.31728,59.14497 c 64.5585,35.39855 128.81377,71.38517 193.56448,106.41094 11.13483,5.96416 19.4785,3.66396 7.5145,-4.36052 C 309.68718,336.78277 257.1967,286.93759 204.70622,237.0924 c -14.53585,15.82838 -29.07169,31.65676 -43.60754,47.48514 z"/></g></svg>