<svg xmlns="http://www.w3.org/2000/svg" xmlns:svg="http://www.w3.org/2000/svg" id="svg12" width="24" height="24" version="1.1" viewBox="0 0 24 24"><metadata id="metadata16"/><title id="title2">ic_wishlist_plus</title><desc id="desc4">Created with Sketch.</desc><g id="Page-1" fill="none" fill-rule="evenodd" stroke="none" stroke-width="1" style="fill:gray"><g id="ic_wishlist_add_24dp" fill="#000" style="fill:gray"><path id="Fill-1" d="M17,3 L7,3 C5.8965,3 5.01075,3.8955 5.01075,5 L5,21 L12,18 L19,21 L19,5 C19,3.8955 18.1045,3 17,3 L17,3 Z M17,18 L12,15.824 L7,18 L7,5 L17,5 L17,18 L17,18 Z" style="fill:gray"/><path id="Fill-2" d="M13,9 L13,7 L11,7 L11,9 L9,9 L9,11 L11,11 L11,13 L13,13 L13,11 L15,11 L15,9 L13,9" style="fill:gray"/></g></g></svg>